<?xml version="1.0" standalone="no"?>
<!DOCTYPE svg PUBLIC "-//W3C//DTD SVG 20010904//EN"
 "http://www.w3.org/TR/2001/REC-SVG-20010904/DTD/svg10.dtd">
<svg version="1.0" xmlns="http://www.w3.org/2000/svg"
 width="2288.000000pt" height="2288.000000pt" viewBox="0 0 2288.000000 2288.000000"
 preserveAspectRatio="xMidYMid meet">
<metadata>
Created by potrace 1.11, written by Peter Selinger 2001-2013
</metadata>
<g transform="translate(0.000000,2288.000000) scale(0.100000,-0.100000)"
fill="#000000" stroke="none">
<path d="M14148 22715 c-2 -1 -70 -6 -153 -9 -82 -4 -177 -8 -210 -11 -33 -2
-100 -7 -150 -10 -49 -3 -106 -8 -125 -10 -19 -2 -69 -7 -110 -10 -41 -4 -88
-8 -105 -10 -16 -2 -57 -7 -90 -10 -89 -9 -142 -15 -220 -25 -38 -5 -90 -12
-115 -15 -25 -4 -56 -8 -70 -10 -14 -2 -45 -7 -70 -10 -25 -3 -115 -17 -200
-31 -200 -32 -205 -33 -270 -45 -30 -6 -68 -13 -85 -15 -16 -3 -106 -21 -200
-40 -93 -19 -181 -37 -194 -40 -13 -3 -54 -12 -90 -20 -36 -8 -77 -17 -91 -20
-252 -54 -915 -256 -1085 -329 -16 -8 -93 -38 -170 -68 -307 -120 -697 -302
-1016 -475 -101 -55 -200 -109 -219 -121 -19 -11 -42 -24 -50 -28 -8 -4 -62
-35 -119 -70 -57 -35 -105 -63 -108 -63 -2 0 -16 -8 -31 -19 -15 -10 -103 -67
-197 -127 -361 -231 -876 -608 -1145 -840 -14 -12 -58 -49 -97 -82 -110 -91
-246 -210 -428 -376 -104 -95 -587 -575 -665 -661 -25 -28 -77 -84 -115 -125
-123 -135 -150 -164 -219 -245 -38 -44 -80 -93 -93 -108 -157 -182 -479 -592
-585 -747 -10 -14 -32 -45 -49 -70 -160 -224 -248 -381 -304 -542 -68 -195
-104 -359 -140 -628 -33 -254 -39 -388 -40 -805 0 -384 12 -679 40 -975 2 -19
6 -69 10 -110 4 -41 8 -91 10 -110 2 -19 6 -60 9 -90 7 -72 15 -146 21 -190 2
-19 7 -53 9 -75 3 -22 8 -65 12 -95 3 -30 8 -68 10 -85 1 -16 10 -82 19 -145
9 -63 18 -128 20 -145 2 -16 6 -43 8 -60 3 -16 9 -52 13 -80 3 -27 8 -59 10
-70 2 -10 6 -37 9 -60 11 -75 79 -478 95 -560 5 -27 13 -68 16 -90 3 -22 8
-43 9 -46 2 -3 7 -25 10 -50 3 -24 26 -141 50 -259 23 -118 42 -216 40 -218
-2 -2 -9 9 -17 25 -16 32 -45 84 -168 303 -48 85 -106 191 -130 235 -24 44
-51 92 -61 107 -11 14 -19 29 -19 32 0 3 -41 79 -92 168 -112 199 -457 819
-506 908 -19 36 -46 82 -59 102 -13 21 -23 39 -23 41 0 2 -43 80 -95 173 -52
93 -183 329 -292 525 -109 196 -201 355 -204 353 -6 -3 -17 -53 -34 -154 -2
-12 -91 -463 -111 -565 -2 -10 -6 -37 -10 -59 -3 -22 -7 -43 -9 -47 -2 -3 -7
-21 -10 -40 -3 -19 -8 -45 -10 -59 -12 -59 -15 -77 -20 -105 -3 -16 -10 -52
-15 -80 -6 -27 -13 -61 -15 -75 -3 -14 -7 -36 -10 -50 -2 -14 -13 -70 -24
-125 -11 -55 -22 -113 -25 -129 -3 -16 -10 -52 -16 -80 -14 -69 -32 -163 -46
-246 -3 -14 -7 -32 -9 -40 -2 -8 -7 -31 -10 -50 -3 -19 -12 -66 -20 -105 -8
-38 -16 -82 -19 -98 -3 -15 -7 -35 -10 -45 -3 -9 -7 -33 -10 -52 -7 -45 -12
-69 -41 -215 -13 -66 -26 -133 -29 -150 -3 -16 -11 -55 -17 -85 -6 -30 -12
-64 -14 -75 -2 -11 -18 -92 -35 -180 -54 -278 -60 -308 -65 -334 -2 -14 -9
-51 -15 -81 -6 -30 -13 -65 -16 -77 -2 -13 -6 -33 -8 -45 -3 -13 -10 -48 -16
-78 -6 -30 -13 -68 -16 -85 -2 -16 -18 -95 -34 -175 -36 -183 -101 -517 -106
-550 -2 -14 -11 -56 -19 -95 -8 -38 -17 -81 -19 -95 -3 -14 -12 -63 -21 -110
-9 -47 -19 -96 -21 -110 -3 -14 -11 -56 -19 -95 -8 -38 -16 -83 -19 -99 -3
-16 -10 -52 -15 -80 -6 -28 -13 -62 -15 -76 -3 -14 -41 -212 -86 -440 -44
-228 -83 -428 -85 -445 -5 -29 -20 -103 -31 -155 -2 -14 -11 -59 -19 -100 -8
-41 -17 -86 -20 -100 -3 -14 -8 -41 -11 -60 -3 -19 -17 -89 -30 -155 -14 -66
-27 -133 -30 -150 -5 -32 -43 -226 -50 -260 -2 -11 -7 -33 -10 -50 -6 -35 -79
-409 -99 -510 -8 -38 -16 -83 -19 -100 -3 -16 -8 -41 -11 -55 -3 -14 -12 -63
-21 -110 -22 -117 -22 -116 -39 -200 -8 -41 -17 -87 -19 -103 -3 -15 -7 -35
-10 -45 -3 -9 -7 -33 -10 -52 -3 -19 -8 -46 -11 -60 -3 -14 -7 -36 -10 -50 -3
-14 -7 -34 -9 -45 -6 -33 -48 -248 -52 -275 -3 -14 -11 -56 -19 -95 -16 -78
-20 -98 -40 -205 -7 -41 -36 -190 -64 -330 -53 -271 -54 -274 -76 -390 -33
-178 -66 -346 -71 -365 -3 -11 -7 -33 -10 -50 -3 -16 -16 -84 -29 -150 -26
-131 -51 -263 -60 -310 -2 -16 -7 -40 -9 -53 -30 -146 -76 -383 -80 -403 -2
-14 -14 -74 -26 -133 -12 -59 -20 -109 -18 -111 3 -3 197 306 248 394 8 14 18
28 21 31 3 3 8 10 10 15 2 6 47 80 100 165 53 85 180 292 284 460 103 168 198
321 211 340 23 36 136 220 183 298 42 69 45 76 62 102 14 21 126 202 380 615
111 180 129 208 130 195 1 -8 3 -37 4 -65 10 -182 16 -281 20 -360 3 -49 8
-133 10 -185 3 -52 7 -135 10 -185 2 -49 7 -137 10 -195 3 -58 8 -143 10 -190
3 -47 8 -132 10 -190 3 -58 7 -143 10 -190 3 -47 8 -137 11 -200 7 -129 10
-191 13 -204 1 -8 61 78 61 88 0 2 46 81 101 177 135 231 196 335 297 509 46
80 118 204 160 275 41 72 90 155 107 185 18 30 121 208 230 395 259 446 249
429 297 514 42 75 51 78 62 20 2 -13 14 -69 26 -124 11 -55 32 -152 45 -215
13 -63 41 -191 60 -285 20 -93 38 -179 41 -190 3 -19 20 -96 79 -372 14 -65
28 -131 31 -148 3 -16 14 -70 25 -120 12 -49 23 -101 25 -115 4 -24 28 -136
41 -190 3 -14 7 -32 9 -40 3 -17 17 -82 19 -90 0 -3 4 -21 8 -40 4 -19 9 -46
12 -60 3 -14 10 -47 16 -75 15 -71 17 -82 34 -160 8 -38 22 -104 30 -145 9
-41 20 -93 25 -115 5 -22 35 -159 65 -305 31 -146 64 -303 75 -350 10 -47 21
-96 24 -110 2 -14 9 -47 15 -75 6 -27 13 -61 15 -75 3 -14 12 -56 21 -95 8
-38 17 -81 20 -95 2 -14 27 -131 55 -260 53 -245 79 -368 87 -410 2 -14 9 -45
14 -70 6 -25 13 -54 15 -65 7 -34 12 -58 23 -105 5 -25 12 -56 15 -70 3 -14
11 -56 20 -95 48 -230 66 -315 75 -355 6 -25 31 -143 56 -264 25 -120 47 -222
49 -225 2 -3 7 -22 10 -41 6 -40 64 -317 71 -340 2 -8 7 -31 10 -50 3 -19 11
-55 16 -80 6 -25 13 -56 15 -69 4 -21 100 -470 109 -511 2 -8 11 -51 20 -95 9
-44 18 -81 19 -82 1 -1 137 83 301 187 165 105 307 193 315 197 9 5 79 48 155
96 77 48 149 93 160 100 10 7 55 35 100 63 172 108 846 530 863 539 10 6 224
140 477 298 253 159 469 294 480 300 10 7 55 35 100 63 44 28 227 142 407 255
180 112 354 221 385 241 32 21 65 41 73 44 8 4 48 29 88 56 41 26 75 48 77 48
2 0 81 49 177 110 153 97 198 125 307 191 14 9 185 116 380 238 194 121 358
221 364 221 5 0 116 -35 246 -77 130 -42 241 -78 246 -79 6 -1 60 -18 120 -37
340 -109 783 -245 820 -253 11 -2 31 -8 45 -13 14 -6 151 -46 305 -90 154 -45
294 -85 310 -90 55 -17 248 -71 435 -121 423 -115 579 -155 800 -209 333 -81
456 -110 492 -116 18 -3 47 -10 63 -15 25 -7 180 -41 260 -56 11 -2 87 -18
169 -35 83 -17 173 -35 200 -39 28 -5 116 -20 196 -34 80 -14 163 -27 185 -31
22 -3 51 -7 65 -10 22 -3 128 -17 230 -30 76 -10 234 -25 305 -30 77 -5 334
-6 394 0 76 6 152 14 177 19 12 3 37 7 55 10 525 84 1206 395 1819 829 98 70
313 229 320 237 3 3 25 21 50 40 52 40 54 42 180 146 52 44 102 86 111 94 8 8
51 46 95 85 423 373 862 865 983 1104 24 47 66 167 75 216 3 17 11 59 19 95 8
36 20 99 27 140 7 41 14 82 15 91 2 9 6 40 10 69 4 29 8 62 11 73 2 10 6 42 9
71 4 28 8 62 10 76 12 93 25 205 30 260 4 36 8 79 10 95 2 17 6 59 10 95 3 36
8 85 11 110 4 45 9 93 19 225 3 39 8 90 10 115 3 25 7 79 10 120 3 41 7 100
10 130 5 54 9 115 20 275 3 44 8 109 10 145 3 36 7 103 10 150 3 47 7 117 10
155 2 39 7 115 10 170 3 55 7 132 10 170 2 39 7 129 10 200 4 72 8 154 10 183
3 29 7 114 11 190 3 75 7 169 9 207 2 39 6 144 10 235 4 91 8 199 10 240 3 64
70 343 124 515 10 30 30 104 37 137 2 10 6 27 9 38 11 44 15 60 50 205 20 83
38 161 41 175 3 14 11 50 19 80 7 30 16 69 19 85 3 17 21 107 40 200 19 94 38
193 42 220 3 28 7 52 9 55 2 3 6 29 10 59 4 30 8 62 10 71 2 9 6 41 10 70 4
29 8 61 10 71 9 45 19 243 18 339 -2 171 -47 345 -155 604 -111 268 -325 655
-540 980 -85 129 -86 131 -39 183 16 19 212 280 223 298 4 6 9 31 13 55 3 25
10 70 15 100 5 30 12 75 15 100 3 25 8 56 10 70 2 14 7 45 10 70 3 25 8 56 10
70 2 14 6 41 9 60 6 48 26 189 31 220 3 14 7 48 10 75 3 28 8 61 10 75 7 45
24 174 30 225 3 28 8 61 10 75 2 14 6 50 10 81 3 31 7 65 9 75 2 11 7 53 11
94 4 41 9 84 11 95 2 10 6 51 10 90 3 38 8 77 9 86 2 9 6 52 10 95 4 43 9 95
11 114 15 128 21 395 11 455 -20 117 -145 259 -347 396 -36 24 -74 49 -85 55
-11 6 -56 32 -99 56 l-79 45 -109 274 c-60 151 -110 279 -112 284 -5 17 -17
48 -31 80 -7 17 -21 50 -30 75 -10 25 -21 54 -26 65 -4 11 -31 79 -59 150 -80
202 -90 229 -100 250 -5 11 -72 182 -150 380 -311 790 -462 1171 -476 1202 -8
17 -14 33 -14 36 0 2 -8 22 -17 43 -9 22 -17 41 -18 44 -1 3 -5 14 -10 25 -43
105 -56 145 -60 173 -3 17 -7 49 -10 70 -10 72 -36 217 -45 252 -5 19 -11 47
-14 63 -3 15 -7 35 -10 45 -3 9 -7 28 -10 42 -42 248 -229 795 -369 1080 -79
163 -223 407 -281 477 -8 10 -37 47 -63 83 -62 84 -226 250 -328 333 -98 79
-249 182 -377 256 -83 49 -431 216 -533 256 -198 78 -617 213 -745 239 -14 3
-74 17 -135 31 -60 14 -119 27 -130 29 -11 2 -69 14 -130 26 -110 21 -136 26
-315 54 -134 21 -166 25 -310 41 -30 3 -71 8 -90 10 -35 4 -112 12 -205 20
-27 2 -95 7 -150 10 -55 4 -125 8 -155 11 -57 5 -917 14 -922 9z m2537 -3529
c238 -16 355 -27 437 -42 9 -1 38 -6 65 -10 26 -3 57 -8 68 -10 11 -2 34 -7
50 -9 125 -22 390 -107 450 -144 32 -19 51 -69 225 -571 32 -91 60 -172 63
-180 10 -26 168 -514 172 -530 2 -8 18 -60 35 -115 29 -93 137 -462 145 -495
2 -8 29 -112 59 -230 30 -118 58 -231 61 -250 3 -19 10 -51 15 -70 5 -19 12
-51 15 -70 3 -19 8 -46 10 -60 13 -61 16 -78 25 -135 24 -157 30 -214 31 -330
3 -172 -14 -238 -72 -283 -27 -21 -54 -33 -84 -38 -11 -2 -30 -6 -42 -9 -19
-4 -24 1 -34 37 -7 24 -14 50 -15 58 -2 8 -22 85 -44 170 -22 85 -58 230 -81
323 -23 92 -44 165 -46 163 -3 -3 -6 -19 -8 -38 -3 -34 -12 -100 -21 -153 -4
-26 -16 -79 -30 -137 -2 -10 -6 -28 -9 -40 -11 -51 -68 -224 -76 -233 -5 -5
-9 -16 -9 -24 0 -22 -97 -216 -148 -296 -148 -232 -280 -346 -432 -371 -14 -2
-36 -7 -49 -10 -46 -10 -197 -4 -286 12 -49 8 -95 16 -102 16 -6 1 -15 22 -19
47 -4 25 -8 51 -10 56 -2 9 -5 28 -19 110 -10 59 -17 100 -21 120 -2 11 -13
75 -24 142 -11 67 -23 132 -25 144 -3 13 -7 39 -10 59 -3 20 -7 47 -10 60 -5
27 -12 68 -19 112 -5 27 -122 435 -157 542 -10 33 -19 67 -19 76 0 23 -21 40
-125 103 -270 162 -648 356 -907 465 -183 77 -414 154 -548 183 -162 36 -358
33 -610 -7 -52 -8 -111 -17 -130 -20 -29 -5 -105 -21 -224 -49 -88 -20 -265
-96 -274 -117 -2 -5 -8 -8 -14 -8 -19 0 -103 -74 -163 -144 -62 -73 -115 -142
-220 -286 -113 -157 -365 -525 -365 -534 0 -4 28 20 63 53 140 132 316 273
452 362 163 106 250 150 360 181 61 17 88 19 220 13 83 -3 166 -8 185 -10 19
-2 69 -6 110 -9 232 -18 419 -42 565 -73 39 -8 80 -16 91 -19 55 -11 205 -58
270 -85 83 -34 176 -89 233 -137 65 -54 140 -182 122 -209 -3 -6 -52 -11 -111
-12 -292 -5 -683 -21 -855 -36 -325 -28 -379 -37 -653 -111 -202 -55 -333 -97
-537 -169 -88 -32 -178 -64 -200 -71 -22 -8 -49 -19 -60 -24 -11 -5 -85 -36
-165 -68 -80 -33 -172 -72 -205 -87 -95 -43 -434 -212 -495 -246 -30 -17 -82
-46 -115 -65 l-60 -33 -41 23 c-22 12 -89 49 -149 81 -61 32 -132 70 -160 85
-27 15 -78 42 -112 60 -35 17 -63 35 -62 39 0 3 13 25 27 49 15 23 78 127 141
231 l114 189 106 50 c58 27 161 75 228 107 132 63 122 51 139 159 3 21 7 46 9
55 1 9 6 36 9 61 4 25 11 65 16 90 5 25 12 63 15 85 3 22 12 76 20 120 15 84
20 111 30 185 4 24 8 47 10 50 2 3 6 30 10 60 3 30 10 71 15 90 5 19 12 60 16
90 4 30 8 57 9 60 1 3 5 30 10 60 5 30 9 57 10 60 1 3 5 28 10 55 4 28 9 59
11 70 4 23 12 68 18 105 2 14 9 54 16 90 7 36 13 76 15 90 2 14 11 68 20 120
9 52 18 109 21 125 2 17 9 55 14 85 5 30 12 71 15 90 3 19 8 46 10 60 3 14 7
39 10 55 2 17 16 100 31 185 31 186 32 190 33 215 2 36 16 45 92 60 41 8 85
17 99 20 28 5 118 22 165 30 17 3 64 12 105 20 41 8 91 17 110 19 19 3 49 8
65 11 27 4 86 14 180 30 108 18 190 31 325 50 14 2 45 7 70 10 25 3 52 8 60
10 8 2 40 7 70 10 30 3 66 8 80 10 14 2 84 11 155 20 72 9 141 18 155 20 14 2
54 7 90 10 36 4 72 9 80 10 8 1 47 6 85 9 39 4 86 9 105 11 19 2 60 6 90 9 30
3 82 7 115 11 33 3 89 7 125 10 36 2 97 7 135 10 117 9 223 15 380 21 82 3
151 7 152 8 5 4 548 -2 638 -8z m-1450 -3540 c28 -3 75 -8 105 -11 60 -6 203
-24 235 -30 98 -16 261 -47 265 -50 3 -2 21 -6 40 -9 19 -3 91 -22 160 -42 69
-20 144 -41 168 -47 23 -6 42 -15 43 -21 0 -6 2 -18 3 -26 5 -26 19 -188 31
-350 4 -58 9 -121 11 -140 3 -19 7 -154 9 -300 6 -298 0 -336 -60 -446 -95
-170 -416 -359 -1010 -594 -44 -18 -93 -38 -110 -45 -167 -73 -476 -176 -596
-200 -43 -9 -139 -23 -204 -30 -65 -8 -278 -8 -330 0 -377 56 -623 177 -945
466 -206 184 -246 234 -331 414 -55 117 -89 215 -130 375 -47 178 -47 190 -7
225 87 80 267 219 348 271 25 16 50 33 55 37 15 12 116 77 120 77 2 0 36 19
77 43 71 42 301 157 313 157 4 0 31 11 61 25 30 14 60 25 67 25 7 0 17 4 22 9
8 7 139 54 190 68 169 46 320 84 355 89 25 3 48 8 52 10 3 2 28 7 54 10 27 3
51 7 54 9 3 2 37 6 75 10 39 4 79 9 90 11 11 2 72 7 135 10 63 4 116 8 118 9
6 5 416 -3 467 -9z m5095 -190 c233 -43 330 -78 462 -167 l57 -39 -4 -83 c-9
-161 -21 -317 -41 -507 -25 -246 -76 -497 -130 -642 -58 -153 -130 -202 -331
-224 -115 -13 -356 -7 -493 11 -174 23 -274 39 -335 52 -154 33 -171 40 -189
82 -36 79 -80 275 -151 671 -34 188 -57 324 -71 415 -3 17 -7 37 -9 45 -4 15
-16 117 -19 155 -1 15 20 30 89 66 138 73 406 137 690 165 39 3 72 8 74 10 6
6 363 -4 401 -10z m-8957 -692 c42 -9 242 -46 267 -50 97 -14 156 -31 165 -50
44 -87 341 -585 494 -829 176 -281 490 -749 521 -775 3 -3 17 -21 30 -40 13
-19 27 -37 30 -40 3 -3 24 -30 47 -60 23 -30 50 -64 60 -75 10 -11 41 -47 68
-80 70 -83 168 -182 248 -248 70 -59 101 -74 74 -34 -35 49 -132 213 -160 271
-44 92 -59 136 -62 189 -3 42 -1 48 13 42 48 -18 355 -94 452 -111 14 -2 36
-7 50 -9 51 -11 67 -13 145 -25 44 -6 91 -13 105 -15 160 -24 265 -30 525 -30
235 0 376 6 445 20 13 2 41 7 61 10 173 26 387 90 545 164 l82 39 -12 -27
c-42 -94 -196 -371 -287 -518 -22 -34 -39 -67 -39 -73 0 -5 -4 -10 -10 -10 -5
0 -10 -5 -10 -11 0 -5 -49 -83 -109 -172 -143 -212 -258 -366 -386 -516 -73
-86 -267 -271 -340 -325 -102 -75 -112 -85 -50 -50 447 253 1003 648 1360 964
175 156 402 380 505 499 30 35 65 76 78 90 49 56 172 221 236 316 36 55 70
105 74 110 16 22 66 116 112 210 41 86 92 247 116 373 3 13 12 49 20 80 9 32
22 82 29 112 8 30 21 85 30 122 l17 68 86 41 c111 53 286 120 354 135 10 2 26
6 36 8 9 2 37 10 62 17 25 6 101 13 170 13 148 1 203 -13 289 -77 173 -127
255 -268 502 -859 77 -184 96 -228 198 -438 100 -207 149 -293 310 -540 74
-114 339 -482 361 -500 10 -9 256 -344 297 -405 229 -343 210 -519 -85 -813
-68 -68 -115 -118 -105 -111 16 9 32 5 94 -23 173 -81 262 -196 283 -368 7
-53 8 -330 1 -400 -12 -129 -17 -182 -25 -230 -5 -30 -12 -75 -15 -100 -16
-122 -76 -390 -133 -601 -25 -93 -29 -126 -31 -260 -5 -321 -15 -672 -26 -869
-7 -127 -16 -273 -20 -320 -2 -25 -6 -85 -10 -135 -4 -49 -8 -110 -11 -135 -2
-25 -6 -72 -9 -105 -3 -33 -8 -76 -10 -95 -2 -19 -7 -57 -10 -85 -9 -86 -19
-162 -36 -280 -6 -38 -12 -83 -14 -100 -3 -16 -7 -41 -10 -55 -3 -14 -10 -54
-16 -89 -33 -207 -111 -474 -179 -616 -89 -186 -126 -213 -480 -348 -121 -46
-397 -124 -535 -151 -70 -14 -81 -16 -110 -21 -16 -3 -55 -10 -85 -15 -30 -5
-75 -12 -100 -15 -25 -3 -61 -7 -80 -10 -64 -8 -154 -16 -235 -20 -91 -6 -422
-6 -475 -1 -19 2 -82 7 -140 11 -58 4 -107 9 -110 10 -3 2 -30 6 -60 9 -30 4
-66 8 -80 11 -14 2 -45 7 -70 10 -25 3 -52 8 -60 10 -8 2 -30 7 -47 10 -18 3
-63 12 -100 21 -38 9 -75 17 -83 19 -91 19 -346 102 -460 150 -300 126 -526
297 -556 421 -28 118 -97 239 -348 614 -208 309 -274 419 -372 617 -67 137
-163 395 -177 478 -7 42 -15 90 -26 160 -14 88 -11 279 6 375 8 45 12 84 9 87
-5 6 -173 -203 -290 -360 -84 -113 -230 -329 -270 -399 l-19 -33 -8 36 c-8 37
-12 54 -30 154 -22 125 -97 447 -120 520 -5 17 -23 80 -40 140 -93 334 -245
706 -376 923 -98 163 -209 294 -323 382 -139 108 -450 225 -720 270 -36 6 -75
13 -88 15 -13 2 -53 7 -90 10 -37 4 -83 8 -102 11 -19 2 -134 6 -255 9 -500
11 -534 22 -611 181 -39 81 -69 171 -120 364 -137 510 -227 704 -391 840 -60
50 -153 117 -258 186 -66 43 -122 81 -125 84 -3 3 -30 24 -60 46 -159 119
-242 245 -274 418 -35 183 7 339 190 711 74 151 138 272 200 378 19 32 34 60
34 62 0 6 340 568 353 584 6 7 16 22 22 32 27 49 108 174 343 528 l254 383 45
-7 c25 -3 55 -9 66 -11z m-6543 -5089 c122 -192 228 -359 234 -369 6 -11 15
-25 19 -30 11 -16 232 -364 259 -409 26 -44 412 -652 470 -740 21 -32 38 -61
38 -63 0 -3 5 -10 10 -17 6 -7 173 -268 371 -582 198 -313 373 -589 390 -613
16 -23 29 -45 29 -48 0 -3 13 -24 29 -47 16 -23 76 -116 133 -207 57 -91 191
-303 298 -473 l195 -307 29 32 c63 71 85 98 186 218 58 69 107 127 110 130 3
3 28 32 55 65 28 33 55 65 60 71 6 6 28 33 50 59 22 27 45 53 50 59 6 6 44 51
85 101 41 49 87 103 101 120 24 27 525 619 567 670 9 11 55 65 102 120 47 55
92 109 102 120 9 11 62 74 118 140 56 66 109 129 118 140 25 30 126 149 132
155 3 3 52 61 110 130 57 69 107 127 110 130 3 3 52 61 110 130 57 69 109 130
115 136 5 6 26 31 46 55 21 24 130 154 244 289 114 135 226 267 249 295 22 27
48 56 56 65 8 8 33 38 55 65 22 28 47 57 55 65 8 8 31 35 51 60 20 25 53 63
73 85 20 22 46 55 58 72 31 44 48 49 49 15 0 -15 2 -36 4 -47 2 -11 7 -47 11
-80 3 -33 8 -68 9 -77 2 -9 6 -41 10 -70 3 -29 8 -69 10 -88 6 -43 16 -125 20
-165 4 -34 15 -118 20 -155 2 -14 7 -52 11 -85 3 -33 8 -67 9 -75 2 -9 6 -43
10 -75 4 -33 8 -71 10 -85 2 -14 7 -52 11 -85 3 -33 7 -67 9 -75 3 -14 11 -79
21 -165 2 -22 7 -51 9 -65 2 -14 7 -52 10 -85 3 -33 8 -67 10 -75 2 -8 6 -46
10 -83 3 -37 8 -77 10 -89 3 -11 7 -44 10 -72 2 -28 7 -62 9 -76 4 -24 14
-102 22 -182 2 -20 5 -49 8 -65 8 -53 16 -108 21 -155 3 -26 7 -62 9 -80 3
-18 8 -55 11 -83 3 -27 8 -63 10 -80 2 -16 7 -50 10 -75 14 -129 24 -203 30
-240 2 -14 7 -50 10 -81 3 -31 7 -65 9 -75 2 -11 7 -48 11 -84 3 -36 8 -76 10
-90 2 -14 7 -49 10 -79 4 -30 8 -61 10 -70 1 -9 6 -45 10 -81 4 -36 9 -72 10
-80 2 -8 6 -44 10 -80 3 -36 8 -72 10 -80 2 -8 7 -43 10 -78 4 -35 8 -71 10
-80 1 -9 6 -46 10 -82 4 -36 9 -78 11 -95 2 -16 6 -52 9 -80 4 -27 8 -61 10
-75 8 -50 25 -186 30 -230 2 -25 6 -61 9 -80 3 -19 8 -57 11 -85 4 -27 8 -63
10 -80 3 -16 12 -86 20 -155 9 -69 18 -141 20 -160 3 -19 12 -93 20 -165 9
-71 18 -141 20 -155 2 -14 7 -50 10 -80 3 -30 7 -66 10 -80 2 -14 7 -50 10
-80 4 -30 8 -66 10 -80 13 -90 26 -212 23 -214 -1 -1 -104 -60 -228 -130 -231
-132 -329 -188 -413 -238 -26 -15 -50 -28 -52 -28 -3 0 -38 -19 -78 -43 -39
-24 -119 -70 -177 -103 -58 -32 -114 -64 -125 -71 -11 -7 -26 -15 -34 -19 -8
-4 -85 -48 -170 -97 -86 -50 -174 -100 -196 -112 -22 -12 -135 -77 -252 -144
-117 -66 -234 -133 -260 -148 -26 -14 -122 -69 -213 -121 -91 -52 -190 -108
-220 -125 -30 -17 -72 -41 -92 -54 -21 -13 -40 -23 -44 -23 -3 0 -18 -8 -32
-18 -15 -11 -52 -32 -82 -49 -93 -51 -151 -84 -245 -138 -49 -29 -110 -64
-135 -77 -25 -14 -74 -42 -110 -63 -86 -50 -116 -67 -170 -97 -25 -14 -88 -50
-140 -80 -52 -30 -100 -57 -105 -59 -6 -2 -42 -23 -80 -46 -39 -22 -263 -151
-500 -286 -236 -135 -446 -254 -465 -266 -19 -11 -41 -24 -49 -28 -8 -3 -73
-40 -145 -81 -72 -41 -151 -86 -176 -100 -25 -14 -58 -34 -75 -44 -16 -10 -37
-21 -45 -25 -8 -4 -63 -35 -122 -69 -59 -35 -110 -59 -113 -54 -6 10 -22 89
-41 205 -3 17 -7 37 -9 45 -2 8 -6 31 -9 50 -8 47 -15 89 -23 125 -3 17 -7 39
-9 50 -1 11 -18 106 -38 210 -44 239 -84 451 -90 490 -3 17 -8 41 -11 55 -10
54 -16 86 -20 120 -3 19 -8 46 -11 60 -9 37 -13 59 -24 120 -5 30 -12 66 -15
80 -3 14 -7 43 -10 65 -3 22 -7 47 -10 55 -2 8 -7 31 -10 50 -4 19 -13 71 -21
115 -22 120 -34 184 -44 245 -6 30 -12 66 -15 80 -3 14 -9 50 -15 80 -6 30
-12 66 -15 80 -6 28 -8 41 -29 160 -9 47 -22 121 -30 165 -8 44 -17 96 -21
115 -3 19 -22 118 -41 219 -19 101 -36 196 -39 210 -2 14 -8 52 -14 84 -6 31
-15 81 -20 110 -6 28 -19 104 -31 167 -12 63 -23 131 -26 150 -2 19 -9 50 -14
70 -5 19 -11 51 -14 70 -3 19 -13 73 -22 120 -8 47 -17 95 -19 107 -2 12 -6
36 -10 53 -4 17 -8 41 -9 53 -2 12 -6 36 -9 52 -4 17 -9 44 -12 60 -9 52 -15
85 -51 280 -19 105 -53 287 -74 405 -22 118 -53 289 -70 380 -17 91 -33 179
-35 195 -3 17 -16 89 -30 160 -13 72 -26 144 -29 160 -3 17 -12 68 -21 115 -9
47 -20 110 -26 140 -5 30 -11 66 -14 80 -3 14 -12 61 -20 105 -8 44 -17 94
-20 110 -9 48 -36 198 -41 225 -3 14 -16 86 -30 160 -13 74 -27 151 -30 170
-9 65 -13 64 -75 -16 -174 -228 -283 -371 -526 -690 -148 -193 -278 -364 -290
-380 -12 -16 -78 -103 -148 -194 -69 -91 -133 -176 -143 -189 -31 -42 -135
-176 -147 -190 -7 -7 14 67 47 165 180 533 459 1361 463 1374 2 8 40 123 85
255 76 227 130 388 136 410 2 6 116 345 254 755 138 410 266 789 283 842 17
53 32 96 33 95 1 -1 102 -159 224 -352z"/>
</g>
</svg>
