<svg xmlns="http://www.w3.org/2000/svg" viewBox="0 -0.5 52 37" shape-rendering="crispEdges">
<metadata>Made with Pixels to Svg https://codepen.io/shshaw/pen/XbxvNj</metadata>
<path stroke="#204040" d="M11 0h4M10 1h1M15 1h1M22 1h7M9 2h1M18 2h4M8 3h1M19 3h2M29 3h1M7 4h1M18 4h1M30 4h1M7 5h1M17 5h1M31 5h6M7 6h1M37 6h1M7 7h1M38 7h1M7 8h1M14 8h1M20 8h1M28 8h3M39 8h1M12 9h8M26 9h6M40 9h2M12 10h6M26 10h6M40 10h2M13 11h5M27 11h5M13 12h1M27 12h6M13 13h1M28 13h5M28 14h6M14 15h1M28 15h9M15 16h1M28 16h12M28 17h11M51 17h1M28 18h4M35 18h4M50 18h2M21 19h11M37 19h1M49 19h3M24 20h8M36 20h1M48 20h4M24 21h11M47 21h5M46 22h6M45 23h7M44 24h8M44 25h7M43 26h7M43 27h6M43 28h5M43 29h4M43 30h3M43 31h2M43 32h1" />
<path stroke="#406080" d="M11 1h2M10 2h5M17 2h1M22 2h7M9 3h10M21 3h8M8 4h10M19 4h11M8 5h9M18 5h13M8 6h29M8 7h30M8 8h6M15 8h5M21 8h7M31 8h8M9 9h3M20 9h6M32 9h8M10 10h2M18 10h8M32 10h8M18 11h9M32 11h6M14 12h13M33 12h4M14 13h14M33 13h4M14 14h14M34 14h4M15 15h13M37 15h1M16 16h12M17 17h11M19 18h9M32 18h3M32 19h5M32 20h4" />
<path stroke="#a36c45" d="M13 1h2M15 2h2M38 11h7M37 12h9M37 13h2M41 13h2M38 14h1M41 14h2M42 15h1" />
<path stroke="#291d39" d="M5 8h2M4 9h1M8 9h1M3 10h1M9 10h1M10 11h3M13 14h1M13 15h1M14 16h1M40 16h1M7 17h2M15 17h2M39 17h1M5 18h2M17 18h2M39 18h1M9 19h1M19 19h2M38 19h1M8 20h1M21 20h3M37 20h1M1 21h1M8 21h1M22 21h2M35 21h2M1 22h2M24 22h11M1 23h5M1 24h9M1 25h13M2 26h15M27 26h2M4 27h17M29 27h2M37 27h1M6 28h19M30 28h3M36 28h1M9 29h19M35 29h1M13 30h18M17 31h21M20 32h18M24 33h14M28 34h10M31 35h8" />
<path stroke="#464646" d="M5 9h3M4 10h3M3 11h4M2 12h5M1 13h6M1 14h1M3 14h8M1 15h2M4 15h6M11 15h2M46 15h1M2 16h2M5 16h3M10 16h3M3 17h3M9 17h4M41 17h3M7 18h3M11 18h3M43 18h2M2 19h7M10 19h5M43 19h2M3 20h5M10 20h8M41 20h3M2 21h1M5 21h2M9 21h4M14 21h7M37 21h7M4 22h1M9 22h2M13 22h11M35 22h9M7 23h1M13 23h31M11 24h1M16 24h8M25 24h5M31 24h12M15 25h1M19 25h6M28 25h3M32 25h6M39 25h4M18 26h1M23 26h1M30 26h2M33 26h4M38 26h4M22 27h1M34 27h1M38 27h3M26 28h1M37 28h2M29 29h1M36 29h1M32 30h1" />
<path stroke="#2f2d2b" d="M7 10h2M7 11h3M7 12h6M7 13h6M2 14h1M11 14h2M3 15h1M10 15h1M47 15h1M4 16h1M8 16h2M13 16h1M46 16h1M2 17h1M6 17h1M13 17h2M40 17h1M45 17h1M10 18h1M14 18h3M40 18h3M45 18h1M15 19h4M39 19h4M9 20h1M18 20h3M38 20h3M44 20h1M7 21h1M13 21h1M21 21h1M44 21h1M3 22h1M8 22h1M11 22h2M44 22h1M6 23h1M12 23h1M44 23h1M10 24h1M24 24h1M30 24h1M43 24h1M14 25h1M25 25h3M31 25h1M38 25h1M43 25h1M17 26h1M24 26h3M29 26h1M32 26h1M37 26h1M42 26h1M21 27h1M27 27h2M31 27h3M35 27h2M41 27h2M25 28h1M33 28h3M40 28h3M28 29h1M33 29h2M39 29h4M31 30h1M37 30h6M38 31h5M38 32h5M38 33h4M38 34h3M39 35h1" />
<path stroke="#5a292b" d="M42 10h4M46 11h1M44 13h1M43 14h1M38 15h2M43 15h1" />
<path stroke="#0c0b1d" d="M2 11h1M1 12h1M0 13h1M0 14h1M46 14h2M0 15h1M48 15h3M1 16h1M51 16h1M1 17h1M2 18h3M1 19h1M1 20h1M0 21h1M0 22h1M0 23h1M0 24h1M0 25h1M1 26h1M2 27h2M4 28h2M6 29h3M9 30h4M13 31h4M17 32h3M20 33h4M42 33h1M24 34h4M41 34h1M28 35h3M40 35h1M31 36h9" />
<path stroke="#794f35" d="M45 11h1M39 13h2M43 13h1M39 14h2M44 14h1M41 15h1M44 15h1" />
<path stroke="#301826" d="M46 12h1M45 13h2M45 14h1M40 15h1M45 15h1M41 16h5M44 17h1" />
<path stroke="#b5bfc4" d="M47 16h1M50 16h1M50 17h1M46 18h1M49 18h1M46 19h2M45 20h2M45 21h1" />
<path stroke="#ebebeb" d="M48 16h2M47 17h3M47 18h2" />
<path stroke="#757d93" d="M46 17h1M45 19h1M48 19h1M47 20h1M46 21h1M45 22h1" />
<path stroke="#666666" d="M2 20h1M3 21h2M5 22h3M8 23h4M12 24h4M16 25h3M19 26h4M23 27h4M27 28h3M39 28h1M30 29h3M37 29h2M33 30h4" />
</svg>