<?xml version="1.0" encoding="utf-8"?>
<!-- Generator: Adobe Illustrator 16.0.2, SVG Export Plug-In . SVG Version: 6.00 Build 0)  -->
<!DOCTYPE svg PUBLIC "-//W3C//DTD SVG 1.1//EN" "http://www.w3.org/Graphics/SVG/1.1/DTD/svg11.dtd">
<svg version="1.1" id="Layer_1" xmlns="http://www.w3.org/2000/svg" xmlns:xlink="http://www.w3.org/1999/xlink" x="0px" y="0px"
	 width="135px" height="38px" viewBox="138.94 29.421 135 38" enable-background="new 138.94 29.421 135 38" xml:space="preserve">
<path fill="#EB991E" d="M156.711,67.442l-3.985-7.479l-6.435,3.95l2.45-7.119l-0.85-0.457l-2.744,1.404l0.555-3.005l-2.156-2.157
	l3.038-0.392l0.458-0.916l-8.102-6.37l6.958,1.438l-6.86-14.439l0.261,0.033c0.065,0,6.665,0.686,9.246,1.208
	c2.646,0.523,3.234,2.189,3.234,2.254l3.594,7.71l1.241-3.561h0.229l0.033,0.098l1.209,3.463l3.593-7.742
	c0-0.065,0.588-1.731,3.234-2.254c2.581-0.523,9.18-1.209,9.245-1.209h0.261l-6.893,14.439l6.958-1.438l-9.082,7.09l0.098,0.196
	l3.038,0.49l-2.221,2.124l0.49,3.037l-2.156-1.175l2.515,7.285l-6.436-3.985L156.711,67.442z M152.824,59.538l3.887,7.251
	l3.92-7.251l5.946,3.657l-2.483-7.218l2.287,1.24l-0.392-2.581l1.895-1.797l-2.581-0.392l-0.261-0.554l8.232-6.437l-6.272,1.307
	l6.894-14.505c-1.274,0.131-6.665,0.719-8.951,1.176c-2.483,0.49-3.005,1.993-3.005,2.058l-3.92,8.461l-1.307-3.757l-1.273,3.757
	l-3.92-8.429c-0.033-0.065-0.555-1.601-3.005-2.091c-2.287-0.457-7.677-1.045-8.952-1.176l6.893,14.505l-6.272-1.307l7.285,5.684
	l-0.653,1.275l-2.581,0.327l1.83,1.829l-0.49,2.548l2.319-1.176l1.241,0.653l-2.254,6.565L152.824,59.538z"/>
<path fill="#EB991E" d="M154.784,44.934l-3.953-8.625c0,0-0.653-1.404-2.45-1.699c-1.797-0.293-6.665-0.719-6.665-0.719l0,0h-0.033
	l6.763,13.231l5.031,0.555l0,0h0.033L154.784,44.934z"/>
<path fill="#EB991E" d="M158.704,44.934l3.953-8.592c0,0,0.653-1.404,2.45-1.699c1.797-0.293,6.665-0.719,6.665-0.719l0,0
	c0.032,0,0.032,0,0.032,0l-6.762,13.199l-5.031,0.555l0,0h-0.033L158.704,44.934z"/>
<polygon fill="#EB991E" points="159.521,59.082 156.711,57.38 156.711,57.38 156.711,57.38 155.34,58.23 153.935,59.082 
	153.935,59.082 153.935,59.082 156.711,64.633 159.521,59.082 "/>
<polygon fill="#EB991E" points="167.949,47.907 159.227,49.148 156.711,42.68 154.229,49.148 145.507,47.907 152.269,52.971 
	149.002,60.32 156.711,55.846 164.454,60.32 161.187,52.971 "/>
<polygon fill="#EB991E" points="189.905,41.399 186.726,48.213 183.57,41.399 177.617,41.399 186.487,58.23 186.989,58.23 
	195.859,41.399 "/>
<path fill="#EB991E" d="M225.05,50.078c0.239-0.239,0.598-0.646,1.028-1.219c0.431-0.574,0.646-1.435,0.646-2.582
	c0-0.741-0.215-1.554-0.646-2.415c-0.43-0.885-1.171-1.506-2.199-1.889c-1.028-0.382-2.2-0.574-3.538-0.574h-8.87v16.208h5.546
	v-4.542h2.295l2.988,4.542h6.695l-4.519-6.957C224.595,50.508,224.811,50.316,225.05,50.078z M220.244,48.572
	c-0.358,0.358-0.789,0.549-1.292,0.549h-1.936v-3.849h1.936c0.503,0,0.957,0.191,1.292,0.598c0.358,0.383,0.525,0.837,0.525,1.339
	C220.77,47.759,220.603,48.213,220.244,48.572z"/>
<polygon fill="#EB991E" points="227.656,45.966 232.318,45.583 232.318,57.608 237.864,57.608 237.864,45.583 242.502,45.966 
	242.502,41.399 227.656,41.399 "/>
<polygon fill="#EB991E" points="267.916,49.169 273.247,41.399 267.294,41.399 264.665,45.679 262.322,41.399 256.465,41.399 
	256.081,41.399 255.651,41.399 261.389,49.576 255.58,57.608 256.058,57.608 256.465,57.608 261.771,57.608 264.522,52.923 
	267.127,57.608 273.822,57.608 "/>
<path fill="#EB991E" d="M201.452,41.112c-1.697,0-3.203,0.383-4.518,1.1l-4.423,8.32l-0.98,1.984l1.243-0.502l0,0
	c0.383,1.41,1.148,2.654,2.295,3.729c1.721,1.649,3.849,2.486,6.383,2.486c2.558,0,4.687-0.837,6.408-2.486
	c1.721-1.65,2.583-3.681,2.583-6.073c0-2.39-0.861-4.398-2.583-6.072C206.115,41.949,203.987,41.112,201.452,41.112z M203.82,52.063
	c-0.646,0.669-1.411,1.003-2.343,1.003c-0.98,0-1.769-0.334-2.415-1.003c-0.646-0.67-0.957-1.458-0.957-2.392
	c0-0.932,0.312-1.745,0.957-2.414c0.622-0.669,1.434-0.98,2.415-0.98c0.956,0,1.745,0.335,2.367,1.004
	c0.622,0.669,0.957,1.458,0.957,2.39C204.776,50.604,204.466,51.393,203.82,52.063z"/>
<polygon fill="#EB991E" points="249.483,53.879 249.483,51.607 256.297,51.607 256.297,47.543 249.483,47.543 249.483,45.272 
	256.416,45.272 253.739,41.399 243.937,41.399 243.937,57.608 253.691,57.608 256.368,53.879 "/>
</svg>
