<?xml version="1.0" encoding="utf-8"?>
<!-- Generator: Adobe Illustrator 23.0.2, SVG Export Plug-In . SVG Version: 6.00 Build 0)  -->
<svg version="1.1" id="Layer_1" xmlns="http://www.w3.org/2000/svg" xmlns:xlink="http://www.w3.org/1999/xlink" x="0px" y="0px"
	 viewBox="0 0 229.4 52.1" style="enable-background:new 0 0 229.4 52.1;" xml:space="preserve">
<style type="text/css">
	.st0{fill:#291D39;}
</style>
<g>
	<path class="st0" d="M78,18.1h-7v19.6h-4.3V18.1h-7v-3.6H78L78,18.1L78,18.1z"/>
	<path class="st0" d="M91.4,21.3l-9,21c-0.1,0.3-0.3,0.5-0.5,0.6s-0.5,0.2-0.9,0.2h-2.9l3.1-6.6l-6.7-15.2h3.5
		c0.3,0,0.6,0.1,0.7,0.2s0.3,0.3,0.4,0.5l3.5,8.5l0.3,0.9l0.2,0.9l0.3-0.9c0.1-0.3,0.2-0.6,0.3-0.9l3.3-8.5c0.1-0.2,0.2-0.4,0.4-0.5
		c0.2-0.1,0.4-0.2,0.7-0.2H91.4L91.4,21.3z M95.8,24.1c0.4-0.9,1.1-1.7,1.8-2.3c0.7-0.6,1.6-0.9,2.5-0.9c0.8,0,1.4,0.2,1.8,0.5
		l-0.3,3c0,0.2-0.1,0.3-0.2,0.4c-0.1,0.1-0.3,0.1-0.4,0.1c-0.2,0-0.4,0-0.7-0.1c-0.3-0.1-0.6-0.1-0.9-0.1c-0.4,0-0.8,0.1-1.2,0.2
		c-0.7,0.3-1.3,0.8-1.6,1.4c-0.2,0.3-0.4,0.7-0.6,1.2v10.1h-3.9V21.3h2.3c0.4,0,0.7,0.1,0.8,0.2c0.2,0.1,0.3,0.4,0.3,0.8L95.8,24.1
		L95.8,24.1z M109.6,21c1.2,0,2.3,0.2,3.3,0.6c1,0.4,1.9,1,2.6,1.7s1.3,1.6,1.7,2.7s0.6,2.2,0.6,3.5c0,1.3-0.2,2.5-0.6,3.5
		s-0.9,1.9-1.7,2.7s-1.6,1.3-2.6,1.7s-2.1,0.6-3.3,0.6s-2.3-0.2-3.3-0.6c-2-0.8-3.5-2.4-4.2-4.4c-0.4-1-0.6-2.2-0.6-3.5
		c0-1.3,0.2-2.5,0.6-3.5s0.9-1.9,1.7-2.7c0.7-0.7,1.6-1.3,2.6-1.7C107.2,21.2,108.4,21,109.6,21L109.6,21z M109.6,34.9
		c1.4,0,2.4-0.5,3-1.4c0.7-0.9,1-2.3,1-4s-0.3-3.1-1-4.1c-0.7-0.9-1.7-1.4-3-1.4c-1.4,0-2.4,0.5-3.1,1.4s-1,2.3-1,4.1s0.3,3.1,1,4
		C107.2,34.4,108.2,34.9,109.6,34.9z M123.2,23.3c0.3-0.3,0.7-0.6,1.1-0.9c1.2-0.9,2.6-1.4,4-1.4c0.9,0,1.7,0.2,2.4,0.5
		s1.3,0.7,1.7,1.3c0.5,0.5,0.8,1.2,1.1,2c0.2,0.8,0.4,1.6,0.4,2.5v10.5h-4V27.2c0-1-0.2-1.8-0.7-2.3c-0.5-0.5-1.2-0.8-2.1-0.8
		c-0.7,0-1.3,0.2-1.9,0.5c-0.6,0.3-1.2,0.7-1.7,1.3v11.9h-4V21.3h2.4c0.5,0,0.8,0.2,1,0.7C122.9,22,123.2,23.3,123.2,23.3z
		 M139.3,30c0.1,0.8,0.2,1.6,0.4,2.2c0.2,0.6,0.5,1.1,0.9,1.5c0.4,0.4,0.8,0.7,1.4,0.9c0.6,0.2,1.2,0.3,1.8,0.3
		c0.6,0,1.2-0.1,1.7-0.2c0.5-0.2,0.9-0.3,1.2-0.5l0.9-0.5c0.3-0.1,0.5-0.2,0.8-0.2c0.3,0,0.6,0.1,0.7,0.4l1.1,1.5
		c-0.4,0.5-0.9,0.9-1.5,1.3s-1.1,0.6-1.7,0.8c-0.6,0.2-1.2,0.4-1.8,0.4s-1.2,0.1-1.8,0.1c-1.1,0-2.2-0.2-3.2-0.6
		c-1-0.4-1.8-0.9-2.6-1.7c-0.7-0.8-1.3-1.7-1.7-2.8c-0.8-2.3-0.8-4.7-0.1-7c0.7-1.9,2.2-3.5,4.1-4.3c1-0.4,2.2-0.7,3.3-0.6
		c1,0,2,0.2,2.9,0.5c1.8,0.6,3.1,2,3.8,3.8c0.4,0.9,0.5,2,0.5,3.2c0,0.6-0.1,1-0.2,1.2c-0.1,0.2-0.4,0.3-0.7,0.3L139.3,30L139.3,30z
		 M146.9,27.6c0-0.5-0.1-1-0.2-1.4s-0.4-0.9-0.6-1.2c-0.3-0.4-0.7-0.6-1.1-0.8c-0.4-0.2-1-0.3-1.6-0.3c-1.1,0-2,0.3-2.7,1
		c-0.7,0.8-1.2,1.7-1.3,2.8L146.9,27.6L146.9,27.6z M171.6,18.7c-0.1,0.2-0.2,0.4-0.4,0.5c-0.2,0.1-0.4,0.2-0.6,0.1
		c-0.2,0-0.5-0.1-0.7-0.3c-0.3-0.2-0.6-0.4-0.9-0.5c-0.4-0.2-0.8-0.4-1.3-0.6c-0.6-0.2-1.1-0.3-1.7-0.2c-0.6,0-1.1,0.1-1.6,0.2
		c-0.4,0.1-0.8,0.4-1.1,0.6s-0.5,0.6-0.7,0.9s-0.2,0.8-0.2,1.2c0,0.5,0.2,1,0.5,1.4s0.7,0.7,1.2,0.9s1.1,0.5,1.7,0.7
		c0.6,0.2,1.3,0.4,2,0.6s1.3,0.5,2,0.8s1.2,0.7,1.7,1.2s0.9,1,1.2,1.7c0.3,0.7,0.4,1.5,0.4,2.5c0,1-0.2,2-0.5,3
		c-0.3,0.9-0.9,1.7-1.6,2.4c-0.7,0.7-1.6,1.2-2.5,1.6c-1,0.4-2.1,0.6-3.4,0.6c-1.5,0-2.9-0.3-4.3-0.8c-0.6-0.3-1.3-0.6-1.9-1
		c-0.6-0.4-1.1-0.8-1.5-1.3l1.3-2.1c0.1-0.2,0.2-0.3,0.4-0.4c0.2-0.1,0.4-0.2,0.6-0.2c0.3,0,0.6,0.1,0.9,0.3
		c0.3,0.2,0.7,0.5,1.1,0.7s0.9,0.5,1.5,0.7c0.6,0.2,1.3,0.3,2.1,0.3c1.2,0,2.2-0.3,2.9-0.9s1-1.4,1-2.5c0-0.6-0.1-1.1-0.4-1.5
		s-0.7-0.7-1.2-1c-0.5-0.3-1.1-0.5-1.7-0.7c-0.6-0.2-1.3-0.4-2-0.6c-0.7-0.2-1.3-0.5-2-0.8c-0.6-0.3-1.2-0.7-1.7-1.2
		c-0.5-0.5-0.9-1.1-1.2-1.8c-0.3-0.9-0.5-1.8-0.4-2.7c0-1.7,0.7-3.4,2-4.6c0.6-0.6,1.4-1.1,2.4-1.5s2-0.6,3.2-0.6
		c1.4,0,2.6,0.2,3.8,0.6c1.1,0.4,2.1,1,3,1.8L171.6,18.7L171.6,18.7z M178.7,23c0.6-0.6,1.4-1.1,2.1-1.5s1.7-0.6,2.7-0.6
		c0.9,0,1.7,0.2,2.4,0.5s1.3,0.7,1.7,1.3s0.8,1.2,1.1,2c0.2,0.8,0.4,1.6,0.4,2.5v10.5h-4V27.2c0-1-0.2-1.8-0.7-2.3
		c-0.4-0.5-1.1-0.8-2.1-0.8c-0.7,0-1.3,0.2-1.9,0.5c-0.6,0.3-1.2,0.7-1.7,1.3v11.9h-4V13.9h4L178.7,23L178.7,23z M196.2,16.5
		c0,0.3-0.1,0.7-0.2,1c-0.4,0.9-1.3,1.5-2.4,1.5c-1,0-1.9-0.6-2.3-1.5c-0.4-0.9-0.2-2,0.5-2.8c0.5-0.5,1.1-0.7,1.8-0.7
		c0.7,0,1.3,0.3,1.8,0.7C195.9,15.1,196.2,15.8,196.2,16.5L196.2,16.5z M195.7,21.3v16.5h-4V21.3H195.7z M202.1,23.3
		c0.3-0.3,0.7-0.6,1.1-0.9c0.7-0.6,1.6-1,2.5-1.2c1.3-0.3,2.7-0.2,3.9,0.3c0.7,0.3,1.3,0.7,1.8,1.3c0.5,0.6,0.8,1.2,1.1,2
		c0.2,0.8,0.4,1.6,0.4,2.5v10.5h-4V27.2c0-1-0.2-1.8-0.7-2.3c-0.5-0.5-1.2-0.8-2.1-0.8c-0.7,0-1.3,0.2-1.9,0.5
		c-0.6,0.3-1.2,0.7-1.7,1.3v11.9h-4V21.3h2.4c0.5,0,0.9,0.2,1,0.7L202.1,23.3L202.1,23.3z M218.3,30c0.1,0.8,0.2,1.6,0.4,2.2
		c0.2,0.6,0.6,1.1,0.9,1.5c0.4,0.4,0.8,0.7,1.4,0.9c0.6,0.2,1.2,0.3,1.8,0.3c0.6,0,1.2-0.1,1.7-0.2c0.5-0.2,0.9-0.3,1.2-0.5l0.9-0.5
		c0.3-0.1,0.5-0.2,0.8-0.2c0.3,0,0.6,0.1,0.7,0.4l1.1,1.5c-0.4,0.5-0.9,0.9-1.5,1.3c-1.1,0.7-2.3,1.1-3.5,1.3
		c-0.6,0.1-1.2,0.1-1.8,0.1c-1.1,0-2.2-0.2-3.2-0.6c-1-0.4-1.8-0.9-2.6-1.7c-0.8-0.8-1.3-1.7-1.7-2.8c-0.8-2.3-0.8-4.7-0.1-7
		c0.7-1.9,2.2-3.5,4.1-4.3c1-0.4,2.2-0.7,3.3-0.6c1,0,2,0.2,2.9,0.5c1.8,0.6,3.1,2,3.8,3.8c0.4,0.9,0.5,2,0.5,3.2
		c0,0.6-0.1,1-0.2,1.2c-0.1,0.2-0.4,0.3-0.7,0.3L218.3,30L218.3,30z M225.9,27.6c0-0.5-0.1-1-0.2-1.4s-0.4-0.9-0.6-1.2
		c-0.3-0.4-0.7-0.6-1.1-0.8c-0.4-0.2-1-0.3-1.6-0.3c-1.1,0-2.1,0.3-2.7,1c-0.7,0.8-1.2,1.7-1.3,2.8L225.9,27.6L225.9,27.6z"/>
</g>
<g>
	<path class="st0" d="M35,17.7c5.5,1.6,7,5.5,7.4,5.6c0.4,0.1,2.4-1.2,1.9-1.8c-0.8-1.1-1.2-1.9-3.1-3.4c-1.4-1.2-3.3-2.1-4.3-2.2
		C35,15.8,34.5,17.6,35,17.7z"/>
	<path class="st0" d="M40.5,13.2c0,0,1-6.4-2.5-6.8C15.4,3.4,13,15,13,15C27,8.1,40.5,13.2,40.5,13.2z"/>
</g>
<path class="st0" d="M44.4,32.3c-1.2-3.6-3.5-6.8-6.7-8.9c-0.6-0.5-6.3-3.6-13.4-3.6c-7.8,0-10.6,1.4-13.7,3.8
	c-3.2,2.4-3.8,4.9-4.1,6.5c-0.8,5.1,6.2,12.2,13.2,13.2C33.1,45.1,45.4,35.4,44.4,32.3z M40.6,29.1c-0.6,0.8-2.6,0.1-3.3-0.2
	c-0.1,0-0.2-0.1-0.3-0.1c-1.3,0.9-7.1,4.4-11.6,4.5h-0.2c-7.4,0-13.5-4.9-14-5.9c-0.2-0.3,0.2-2.3,1.2-3.2c0.6-0.5,3.5-2.1,9.2-2.6
	c-1.6,1.1-2.7,2.7-2.7,4.6c0,3.2,2.9,5.8,6.5,5.8s6.5-2.6,6.5-5.8c0-1.7-0.8-3.2-2.1-4.2c4.4,0.9,7.4,2.6,7.8,3
	c0.2,0.1,0.7,0.5,1.3,1v0C38.9,26,41.4,28.1,40.6,29.1z"/>
</svg>
