<svg xmlns="http://www.w3.org/2000/svg" viewBox="0 0 234 52">
	<g class="logo-text" fill="#291D39">
		<path d="M78.01 18.06h-7V37.7h-4.3V18.06h-7V14.5H78v3.55z"/>
		<path d="M91.4 21.25l-8.97 20.99c-.12.28-.27.49-.46.63s-.47.22-.86.22h-2.95l3.08-6.61-6.66-15.23h3.48c.31 0 .55.07.73.22s.3.33.4.52l3.5 8.53.29.87.23.88.3-.89c.09-.3.2-.58.31-.87l3.3-8.52c.1-.22.23-.4.43-.53.2-.14.42-.21.67-.21h3.18zM95.83 24.1a7.1 7.1 0 0 1 1.82-2.31 3.9 3.9 0 0 1 2.5-.85c.77 0 1.38.17 1.84.5l-.26 2.97a.77.77 0 0 1-.23.41.64.64 0 0 1-.41.12c-.16 0-.4-.03-.72-.08a5.58 5.58 0 0 0-.92-.08c-.44 0-.83.06-1.17.2a3.21 3.21 0 0 0-1.64 1.42c-.21.34-.4.73-.59 1.17v10.15H92.1V21.25h2.32c.41 0 .7.07.85.22.16.14.27.4.33.77l.24 1.87zM109.6 21c1.21 0 2.32.2 3.32.59 1 .4 1.86.95 2.57 1.68.71.73 1.26 1.62 1.65 2.67s.57 2.22.57 3.51c0 1.3-.19 2.48-.57 3.53s-.94 1.94-1.65 2.68-1.57 1.3-2.57 1.7c-1 .4-2.1.6-3.33.6s-2.35-.2-3.35-.6a7.18 7.18 0 0 1-4.23-4.38c-.39-1.05-.58-2.23-.58-3.53 0-1.3.2-2.47.58-3.51s.94-1.94 1.65-2.67a7.28 7.28 0 0 1 2.58-1.68c1-.4 2.12-.6 3.35-.6zm0 13.9c1.36 0 2.38-.45 3.03-1.38.66-.92 1-2.26 1-4.04s-.34-3.13-1-4.06c-.65-.93-1.67-1.4-3.04-1.4-1.39 0-2.42.47-3.09 1.4s-1 2.3-1 4.06.34 3.11 1 4.04c.67.92 1.7 1.38 3.1 1.38zM123.17 23.27c.33-.33.68-.64 1.05-.92a6.61 6.61 0 0 1 4.03-1.36c.9 0 1.7.16 2.4.46.7.3 1.27.73 1.74 1.29.46.55.82 1.2 1.06 1.97.24.76.36 1.6.36 2.53v10.48h-3.97V27.24c0-1.01-.23-1.79-.69-2.34-.46-.55-1.16-.83-2.1-.83-.68 0-1.32.16-1.92.47-.6.3-1.17.73-1.7 1.27v11.9h-3.97V21.25h2.43c.5 0 .85.24 1 .72l.28 1.3zM139.33 29.98c.06.84.21 1.57.45 2.19.23.61.54 1.12.93 1.52.38.4.84.7 1.37.9a5 5 0 0 0 1.76.3c.64 0 1.2-.08 1.66-.23.46-.15.87-.31 1.22-.5l.91-.5c.27-.14.52-.22.77-.22.33 0 .57.13.73.37l1.14 1.45c-.44.5-.93.94-1.47 1.29s-1.12.62-1.71.83c-.6.21-1.2.36-1.82.44s-1.2.13-1.79.13c-1.14 0-2.2-.19-3.19-.57a7.13 7.13 0 0 1-2.56-1.68c-.73-.75-1.3-1.67-1.72-2.76a10.6 10.6 0 0 1-.08-6.98 7.38 7.38 0 0 1 4.05-4.32 8.19 8.19 0 0 1 3.31-.65c1.04 0 2 .17 2.87.5a6.27 6.27 0 0 1 3.75 3.8c.36.92.54 1.97.54 3.16 0 .6-.07 1-.2 1.21-.12.21-.37.32-.73.32h-10.2zm7.56-2.4c0-.5-.07-.99-.22-1.44s-.36-.86-.65-1.2a3.02 3.02 0 0 0-1.1-.81c-.44-.2-.96-.3-1.55-.3-1.14 0-2.04.33-2.7.98a4.8 4.8 0 0 0-1.26 2.78h7.48zM171.63 18.73a1.5 1.5 0 0 1-.4.49.9.9 0 0 1-.55.15c-.22 0-.47-.08-.73-.25-.26-.16-.57-.35-.93-.55-.37-.2-.8-.39-1.28-.56a5.35 5.35 0 0 0-1.73-.24c-.6 0-1.12.07-1.57.21-.45.15-.82.35-1.13.6s-.53.57-.68.93c-.15.36-.23.75-.23 1.18 0 .54.16 1 .46 1.36s.71.67 1.21.93 1.08.49 1.72.7c.64.2 1.3.41 1.97.64s1.34.5 1.98.8c.64.3 1.21.7 1.71 1.16.5.46.91 1.03 1.22 1.7.3.68.45 1.5.45 2.46 0 1.05-.18 2.03-.53 2.95a6.82 6.82 0 0 1-1.57 2.39 7.42 7.42 0 0 1-2.53 1.6c-1 .4-2.14.59-3.42.59a11 11 0 0 1-4.25-.84c-.65-.26-1.27-.58-1.85-.96a8.96 8.96 0 0 1-1.54-1.25l1.27-2.07c.1-.15.24-.28.41-.38.18-.1.36-.15.55-.15.27 0 .56.11.87.33.3.22.68.46 1.1.73s.93.51 1.5.73c.58.22 1.26.33 2.07.33 1.23 0 2.18-.3 2.85-.88s1.01-1.42 1.01-2.5c0-.62-.15-1.12-.45-1.5s-.71-.71-1.21-.97a9.12 9.12 0 0 0-1.72-.67c-.64-.18-1.3-.38-1.96-.6-.66-.2-1.31-.46-1.96-.76a6.3 6.3 0 0 1-1.71-1.17 5.3 5.3 0 0 1-1.22-1.8 6.84 6.84 0 0 1-.45-2.68 6.34 6.34 0 0 1 1.97-4.6c.64-.63 1.43-1.12 2.38-1.5s2.02-.56 3.24-.56c1.37 0 2.63.21 3.78.64a8.55 8.55 0 0 1 2.96 1.8l-1.08 2.04zM178.7 23.02c.65-.6 1.36-1.1 2.13-1.46s1.67-.57 2.7-.57c.9 0 1.7.16 2.4.46.7.3 1.27.73 1.74 1.28s.82 1.21 1.06 1.98c.24.76.36 1.6.36 2.52v10.48h-3.96V27.23c0-1-.23-1.78-.7-2.33-.45-.55-1.15-.83-2.1-.83-.68 0-1.32.16-1.92.47-.6.3-1.17.73-1.7 1.27v11.9h-3.97V13.87h3.97v9.15zM196.22 16.45c0 .34-.07.67-.21.96a2.62 2.62 0 0 1-2.36 1.53 2.56 2.56 0 0 1-2.3-1.53 2.5 2.5 0 0 1 .54-2.76 2.58 2.58 0 0 1 1.76-.73 2.5 2.5 0 0 1 1.8.73 2.59 2.59 0 0 1 .77 1.8zm-.55 4.8V37.7h-3.98V21.25h3.98zM202.14 23.27c.33-.33.68-.64 1.05-.92a6.67 6.67 0 0 1 2.5-1.19 6.65 6.65 0 0 1 3.92.3c.7.3 1.28.72 1.75 1.27.46.56.81 1.21 1.05 1.98.24.76.37 1.6.37 2.53v10.48h-3.97V27.24c0-1.01-.23-1.79-.69-2.34-.46-.55-1.16-.83-2.1-.83-.69 0-1.33.16-1.93.47-.6.3-1.16.73-1.7 1.27v11.9h-3.96V21.25h2.42c.52 0 .85.24 1.01.72l.28 1.3zM218.3 29.98c.06.84.21 1.57.44 2.19.24.61.55 1.12.94 1.52.38.4.84.7 1.37.9a5 5 0 0 0 1.75.3c.65 0 1.2-.08 1.66-.23.47-.15.88-.31 1.23-.5l.91-.5c.26-.14.52-.22.76-.22.33 0 .58.13.74.37l1.14 1.45c-.44.5-.93.94-1.48 1.29a8.26 8.26 0 0 1-3.52 1.27c-.61.09-1.21.13-1.79.13-1.14 0-2.2-.19-3.2-.57a7.11 7.11 0 0 1-2.56-1.68 7.9 7.9 0 0 1-1.72-2.76 10.71 10.71 0 0 1-.08-6.98 7.4 7.4 0 0 1 4.05-4.32 8.2 8.2 0 0 1 3.32-.65c1.04 0 2 .17 2.87.5a6.28 6.28 0 0 1 3.75 3.8c.36.92.54 1.97.54 3.16 0 .6-.07 1-.2 1.21-.12.21-.37.32-.73.32h-10.2zm7.55-2.4c0-.5-.07-.99-.21-1.44s-.36-.86-.65-1.2a3.01 3.01 0 0 0-1.1-.81c-.45-.2-.96-.3-1.55-.3-1.15 0-2.05.33-2.7.98a4.8 4.8 0 0 0-1.26 2.78h7.47z"/>
	</g>
	<path fill="#291D39" d="M44.3 33.01a17.19 17.19 0 0 0-6.8-8.96c-.6-.46-6.4-3.68-13.52-3.68-7.92 0-10.67 1.38-13.83 3.8-3.19 2.44-3.86 4.99-4.13 6.6-.86 5.13 6.26 12.35 13.32 13.28 13.61 1.8 25.99-7.9 24.95-11.04zM42.35 23.9c-.42-.1-1.94-4-7.47-5.64-.59-.17-.04-1.95 1.93-1.86 1.06.05 2.93.96 4.36 2.21 1.9 1.54 2.26 2.31 3.11 3.44.48.63-1.5 1.94-1.93 1.84zM40.34 13.64s-13.58-5.08-27.7 1.83c0 0 2.37-11.65 25.15-8.7 3.52.45 2.55 6.87 2.55 6.87z"/>
	<path fill="#FBCC9A" d="M40.52 28.84c-.48-1.37-2.47-2.99-2.98-3.21-.61-.47-6-3.55-13.12-3.55-7.92 0-11.84 2.13-12.5 2.75-.97.9-1.34 2.87-1.18 3.19.5.98 6.72 5.93 14.18 5.93h.15c4.52-.05 10.41-3.6 11.72-4.51.64.29 2.06.56 2.87.56.45 0 .68-.19.79-.35.1-.15.2-.42.07-.8z"/>
	<path fill="#754595" d="M36.8 29.44s1.82-1.72 2-2.77v-.09s2.46 2.15 1.66 3.17c-.74.96-3.67-.31-3.67-.31z"/>
	<path fill="transparent" d="M0 0h52.13v52.13H0z"/>
	<path fill="#291D39" d="M44.37 32.34a17.01 17.01 0 0 0-6.72-8.87c-.6-.46-6.34-3.64-13.39-3.64-7.84 0-10.56 1.36-13.7 3.77-3.15 2.41-3.81 4.93-4.08 6.53-.85 5.07 6.2 12.22 13.2 13.15 13.46 1.78 25.72-7.83 24.69-10.94zM42.45 23.32c-.42-.1-1.93-3.96-7.4-5.58-.58-.17-.04-1.93 1.92-1.84 1.05.05 2.9.95 4.3 2.19 1.89 1.52 2.24 2.28 3.09 3.4.47.63-1.5 1.92-1.91 1.83zM40.46 13.17s-13.44-5.03-27.42 1.8c0 0 2.34-11.52 24.89-8.6 3.49.44 2.53 6.8 2.53 6.8z"/>
	<path fill="#FBCC9A" d="M40.64 28.22c-.48-1.36-2.45-2.96-2.96-3.19-.6-.46-5.94-3.51-12.98-3.51-7.84 0-11.72 2.11-12.38 2.73-.96.89-1.32 2.83-1.16 3.15.5.98 6.65 5.88 14.03 5.88h.15c4.47-.06 10.31-3.57 11.6-4.48.63.29 2.04.56 2.84.56.45 0 .67-.18.79-.34.1-.15.2-.42.07-.8z"/>
	<path fill="#754595" d="M36.95 28.8s1.8-1.7 1.99-2.74v-.08s2.42 2.13 1.64 3.14c-.73.94-3.63-.32-3.63-.32z"/>
	<ellipse fill="#291D39" cx="25.42" cy="26.29" rx="6.54" ry="5.77"/>
</svg>