<svg xmlns="http://www.w3.org/2000/svg" width="106.07" height="118.327" viewBox="0 0 106.07 118.327">
  <path d="M-145.708 94.522l2.032-2.708s2.444-15.796 1.918-17.828c-.526-2.03-4.513-3.95-4.513-3.95l-9.03-22.79s-1.14-10.177-6.4-16.437c-6.28-7.49-25.77-12.68-51.49-7.04-25.73 5.64-43.67 26.63-49.65 35.88-5.98 9.25.79 39.38.79 39.38l-12.52-22.45-16.25 83.72 12.18-19.75.79 14.89 9.7-16.7 10.83 51 38.81-24.26s29.45 9.93 42.2 10.27c12.75.33 27.98-15.12 30.01-19.3 2.03-4.18 3.04-32.5 3.04-32.5s3.87-13.13 3.27-17.61c-.6-4.48-5.76-11.85-5.76-11.85zm-64.708-23.356l3.385-1.58 3.21-19.068s26.96-5.642 35.88-1.128c0 0 7.24 19.316 6.09 24.034-.26 1.043-1.58 1.015-1.58 1.015l-1.47-5.76s-.23 5.44-3.73 8.91c-1.71 1.69-5.08.67-5.08.67l-1.13-6.55-1.36-4.62s-9.59-6.05-14.22-5.55c-4.63.5-6.04 1.07-7.28 2.03-1.24.96-5.14 6.92-5.14 6.92s4.89-4.86 7.62-4.67c2.73.19 11.79.34 12.41 4.17 0 0-7.99.08-10.53.69-8.88 2.12-15.27 6.11-15.27 6.11l-3.99-2.12 2.14-3.56zm31.48 12.58c-.226 2.2-1.975 3.5-10.493 6.77-8.51 3.273-12.75-1.522-14.78-3.328-2.03-1.805-2.76-6.43-2.76-6.43 12.24-11.115 27.42-5.135 27.65-5.135 0 0 .62 5.924.4 8.124zm-77.402 101.436l-9.704-52.974-9.962 13.078-.08.235v-.13l.08-.1 9.85-29.33 20.14 31.77 24.147-28.54 5.416 43.27-39.89 22.74zm97.674-36.537c-12.813 5.896-26.76.714-27.493-2.56-.733-3.27-8.424-9.853-6.657-17.375 0 0-2.934 3.442-4.4 6.093 0 0-2.087-13.878-7.447-16.643-5.36-2.764-10.67-1.357-12.36-2.202-1.69-.845-1.81-7.502-4.35-9.758-2.54-2.257-5.53-2.764-5.7-6.544-.17-3.78 10.55-19.125 10.55-19.125l3.95.74s7.97 14.39 11.92 16.65c0 0-2.2-3.14-1.77-4 0 0 10.89 3.61 18.11-.33 0 0-4.91 10.16-10.04 13.15 0 0 14.44-7.73 18.67-17.43l1.24-4.91s4.74-2.59 7.05-1.29c2.31 1.3 3.04 4.39 5.22 9.14 3.27 7.14 8.37 11.21 8.77 14.13.35 2.52-3.68 4.92-2.49 4.26 0 0 2.48.62 2.7 2.88.47 4.65-1.51 10.84-1.51 10.84s.14 22.43-4 24.34z"/>
  <path d="M-179.83 105.025s-6.27 4.73-.31 7.428c0 0-2.52-2.417.31-7.428zm8.19 7.08s-1.787-2.257-2.727-1.542c-.94.714-.687.875-1.025 1.15-.144.115-.724-.586-.724-.586s1.402 3.46 4.476.978z"/>
  <path fill="#FFF" d="M-157.028 76.432s8.086-2.67 11.96.64c0 0-.282 9.118-2.05 10.36-1.767 1.24-8.575.074-9.176-.34-.602-.414-2.05-9.984-2.05-9.984l1.316-.676z"/>
  <path d="M-151.706 125.405l-.79-1.317s-19.915-1.71-24.24 9.008c0 0 21.043-7.015 23.75-2.69l1.28-5z"/>
  <g fill="#864458">
    <path d="M-108.932 455.967c-.603-4.476-5.755-11.848-5.755-11.848l2.032-2.71s2.443-15.8 1.917-17.83c-.526-2.03-4.513-3.95-4.513-3.95l-9.03-22.8s-1.14-10.18-6.4-16.44c-6.29-7.49-25.77-12.68-51.49-7.04-25.73 5.64-43.67 26.62-49.65 35.88-5.98 9.25.79 39.37.79 39.37l-12.53-22.45-16.25 83.72 12.18-19.75.79 14.89 9.7-16.7 10.83 51 38.81-24.26s29.45 9.93 42.2 10.27c12.75.33 27.98-15.12 30.01-19.3 2.03-4.18 3.04-32.5 3.04-32.5s3.87-13.13 3.27-17.61zm-70.464-35.202l3.385-1.58 3.21-19.07s26.96-5.64 35.88-1.127c0 0 7.24 19.316 6.09 24.033-.26 1.05-1.58 1.02-1.58 1.02l-1.47-5.75s-.23 5.45-3.73 8.92c-1.71 1.69-5.08.68-5.08.68l-1.13-6.54-1.36-4.61s-9.59-6.05-14.21-5.54c-4.63.51-6.04 1.07-7.28 2.03-1.24.96-5.14 6.92-5.14 6.92s4.89-4.86 7.61-4.66c2.73.2 11.79.34 12.41 4.18 0 0-7.99.09-10.53.7-8.88 2.13-15.27 6.11-15.27 6.11l-3.99-2.12 2.15-3.55zm31.48 12.58c-.227 2.2-1.976 3.498-10.494 6.77-8.518 3.272-12.75-1.522-14.78-3.33-2.032-1.803-2.766-6.43-2.766-6.43 12.243-11.113 27.42-5.134 27.645-5.134 0 0 .62 5.93.39 8.13zM-225.32 534.78l-9.703-52.974-9.962 13.077-.08.235v-.13l.08-.105 9.85-29.327 20.14 31.764 24.147-28.547 5.416 43.27-39.887 22.737zm97.676-36.538c-12.814 5.897-26.76.714-27.493-2.56s-8.425-9.853-6.658-17.374c0 0-2.933 3.44-4.4 6.09 0 0-2.088-13.876-7.448-16.64-5.36-2.766-10.662-1.358-12.354-2.202-1.693-.845-1.806-7.502-4.344-9.76-2.54-2.257-5.53-2.763-5.7-6.544-.17-3.78 10.55-19.125 10.55-19.125l3.95.734s7.97 14.39 11.92 16.65c0 0-2.2-3.14-1.77-4 0 0 10.89 3.61 18.11-.34 0 0-4.91 10.16-10.04 13.15 0 0 14.44-7.73 18.67-17.43l1.24-4.9s4.74-2.59 7.05-1.3c2.31 1.3 3.04 4.39 5.22 9.14 3.27 7.14 8.37 11.21 8.77 14.13.35 2.52-3.68 4.92-2.49 4.27 0 0 2.48.62 2.71 2.88.47 4.65-1.51 10.83-1.51 10.83s.14 22.43-4.01 24.34z"/>
    <path d="M-149.12 462.05s-2.52-2.416.31-7.427c0 0-6.27 4.73-.31 7.428zm8.5-.346s-1.788-2.258-2.728-1.544c-.94.714-.687.875-1.025 1.15-.143.115-.724-.587-.724-.587s1.403 3.462 4.477.98zm-5.096 22.433s16.82-9.703 19.528-5.377l1.278-5.003-.79-1.316s-15.69.98-20.016 11.7z"/>
  </g>
  <path fill="#864458" d="M-120.686 416.883l6.637 107.44 210.36-40.186-34-41.277"/>
  <path fill="#FFF" d="M-126.008 426.028s8.086-2.67 11.96.64c0 0-.283 9.12-2.05 10.36-1.767 1.24-8.574.075-9.176-.338-.603-.414-2.05-9.984-2.05-9.984l1.316-.678z"/>
  <path fill="#864458" d="M-.045 228.534c-.424-3.146-4.045-8.327-4.045-8.327l1.428-1.903s1.717-11.102 1.347-12.53c-.37-1.427-3.17-2.774-3.17-2.774l-6.345-16.02s-.802-7.15-4.494-11.55c-4.415-5.26-18.107-8.91-36.188-4.944-18.08 3.965-30.69 18.714-34.893 25.217s.556 27.676.556 27.676l-8.8-15.78-11.42 58.84 8.57-13.88.56 10.46 6.82-11.74 7.61 35.84 27.28-17.05s20.7 6.98 29.66 7.21 19.67-10.63 21.1-13.56c1.43-2.94 2.14-22.84 2.14-22.84s2.73-9.22 2.3-12.37zm-49.523-24.742l2.38-1.11 2.26-13.402s18.952-3.965 25.216-.793c0 0 5.09 13.576 4.282 16.89-.178.734-1.11.715-1.11.715l-1.03-4.045s-.158 3.826-2.616 6.265c-1.198 1.187-3.57.476-3.57.476l-.792-4.6-.955-3.242s-6.737-4.252-9.988-3.895c-3.26.36-4.25.76-5.12 1.43-.87.68-3.61 4.87-3.61 4.87s3.43-3.41 5.35-3.28c1.91.14 8.28.24 8.72 2.94 0 0-5.61.06-7.4.49-6.24 1.49-10.73 4.3-10.73 4.3l-2.81-1.49 1.5-2.49zm22.124 8.842c-.16 1.546-1.388 2.458-7.375 4.76-5.98 2.298-8.96-1.072-10.38-2.34-1.42-1.27-1.94-4.52-1.94-4.52 8.61-7.813 19.27-3.61 19.43-3.61 0 0 .44 4.164.28 5.71zm-54.4 71.29l-6.82-37.23-7.003 9.192-.055.165v-.09l.055-.07 6.923-20.61 14.154 22.32 16.974-20.06 3.807 30.41-28.03 15.98zm68.647-25.678c-9.005 4.144-18.807.502-19.322-1.798-.51-2.3-5.92-6.926-4.67-12.213 0 0-2.06 2.418-3.09 4.282 0 0-1.46-9.754-5.23-11.697-3.76-1.942-7.49-.954-8.68-1.547-1.19-.594-1.27-5.272-3.05-6.858-1.78-1.586-3.88-1.943-4-4.6-.11-2.657 7.42-13.442 7.42-13.442l2.77.516s5.61 10.11 8.38 11.69c0 0-1.55-2.21-1.24-2.82 0 0 7.66 2.54 12.73-.24 0 0-3.45 7.13-7.06 9.23 0 0 10.15-5.43 13.13-12.25l.88-3.45s3.33-1.82 4.96-.91 2.14 3.08 3.67 6.42c2.3 5.01 5.89 7.88 6.17 9.93.25 1.77-2.59 3.46-1.75 3 0 0 1.75.43 1.91 2.02.33 3.26-1.06 7.61-1.06 7.61s.1 15.76-2.812 17.11zm8.116-43.023c-1.25.873-6.03.053-6.45-.238-.43-.29-1.44-7.017-1.44-7.017l.92-.476s5.68-1.876 8.4.45c0 0-.2 6.41-1.44 7.28zm111.1-155.5c-.43-3.145-4.05-8.326-4.05-8.326l1.42-1.903s1.71-11.102 1.34-12.53c-.37-1.427-3.17-2.774-3.17-2.774l-6.34-16.02s-.81-7.152-4.5-11.552c-4.41-5.26-18.1-8.908-36.19-4.943C36.47 5.64 23.86 20.39 19.66 26.893s.557 27.676.557 27.676l-8.8-15.78L0 97.63l8.563-13.88.556 10.468 6.81-11.735 7.61 35.845 27.28-17.05s20.69 6.978 29.66 7.216 19.66-10.626 21.09-13.56c1.42-2.936 2.14-22.84 2.14-22.84s2.72-9.224 2.3-12.37zM56.5 34.983l2.38-1.11 2.26-13.403s18.953-3.965 25.217-.793c0 0 5.09 13.576 4.282 16.89-.18.734-1.11.715-1.11.715l-1.03-4.045s-.16 3.826-2.62 6.265c-1.2 1.187-3.57.476-3.57.476l-.79-4.6-.96-3.242s-6.74-4.252-9.99-3.895c-3.25.36-4.25.76-5.12 1.43-.87.68-3.61 4.87-3.61 4.87s3.43-3.41 5.35-3.28c1.91.14 8.28.24 8.72 2.94 0 0-5.62.06-7.4.49-6.24 1.49-10.73 4.29-10.73 4.29l-2.8-1.49 1.5-2.5zm22.125 8.84c-.16 1.547-1.388 2.46-7.375 4.76-5.984 2.3-8.96-1.07-10.387-2.34-1.427-1.27-1.942-4.52-1.942-4.52 8.61-7.812 19.27-3.61 19.43-3.61 0 0 .44 4.165.28 5.71zm-54.4 71.29l-6.82-37.23-7.002 9.193-.055.165v-.09l.053-.07 6.93-20.61 14.16 22.32 16.97-20.06 3.81 30.41-28.03 15.98zm68.647-25.677c-9.005 4.144-18.807.502-19.322-1.798-.513-2.3-5.92-6.926-4.677-12.213 0 0-2.06 2.418-3.094 4.282 0 0-1.47-9.754-5.24-11.697-3.77-1.942-7.49-.954-8.69-1.547-1.19-.594-1.27-5.272-3.06-6.858-1.79-1.586-3.89-1.943-4.01-4.6-.12-2.657 7.41-13.442 7.41-13.442l2.77.516s5.6 10.11 8.38 11.69c0 0-1.55-2.21-1.25-2.82 0 0 7.65 2.54 12.73-.24 0 0-3.45 7.13-7.06 9.23 0 0 10.15-5.43 13.12-12.25l.87-3.45s3.33-1.82 4.95-.91c1.63.91 2.14 3.08 3.67 6.42 2.3 5.01 5.88 7.88 6.17 9.93.24 1.77-2.59 3.46-1.75 3 0 0 1.74.43 1.9 2.02.33 3.26-1.06 7.61-1.06 7.61s.094 15.76-2.82 17.11zm8.116-43.023c-1.243.873-6.03.053-6.45-.238-.425-.29-1.44-7.017-1.44-7.017l.923-.476s5.69-1.876 8.41.45c0 0-.2 6.41-1.44 7.28z"/>
  <path d="M-10.452-112.924c-.424-3.146-4.045-8.327-4.045-8.327l1.428-1.91s1.72-11.1 1.35-12.53c-.37-1.43-3.17-2.78-3.17-2.78l-6.34-16.02s-.8-7.15-4.49-11.55c-4.41-5.26-18.1-8.91-36.19-4.95-18.08 3.96-30.68 18.71-34.89 25.21-4.2 6.5.56 27.67.56 27.67l-8.8-15.78-11.42 58.84 8.57-13.88.56 10.46 6.82-11.74 7.62 35.84 27.28-17.05s20.7 6.98 29.66 7.21c8.96.24 19.67-10.62 21.1-13.56 1.43-2.93 2.14-22.84 2.14-22.84s2.72-9.22 2.3-12.37zm-49.524-24.742l2.38-1.11 2.26-13.402s18.952-3.965 25.216-.793c0 0 5.09 13.57 4.282 16.89-.178.73-1.11.71-1.11.71l-1.03-4.05s-.158 3.82-2.616 6.26c-1.198 1.18-3.57.47-3.57.47l-.792-4.6-.955-3.24s-6.74-4.26-9.99-3.9c-3.25.36-4.24.75-5.12 1.43-.87.67-3.61 4.86-3.61 4.86s3.43-3.42 5.35-3.28c1.92.13 8.28.24 8.72 2.93 0 0-5.62.06-7.4.49-6.24 1.5-10.74 4.3-10.74 4.3l-2.8-1.5 1.5-2.5zm22.124 8.842c-.158 1.546-1.388 2.458-7.375 4.76-5.986 2.298-8.96-1.072-10.388-2.34-1.427-1.27-1.943-4.52-1.943-4.52 8.605-7.813 19.27-3.61 19.43-3.61 0 0 .435 4.163.276 5.71zm-54.4 71.29l-6.82-37.23-7.002 9.19-.055.167v-.093l.06-.073 6.92-20.612 14.16 22.325 16.97-20.07 3.81 30.412-28.03 15.98zm68.648-25.678c-9.005 4.144-18.807.502-19.322-1.798-.515-2.3-5.92-6.926-4.68-12.212 0 0-2.06 2.418-3.093 4.282 0 0-1.46-9.754-5.23-11.697-3.76-1.942-7.49-.954-8.68-1.547-1.19-.594-1.27-5.272-3.05-6.86-1.78-1.585-3.88-1.94-4-4.598-.12-2.657 7.42-13.442 7.42-13.442l2.78.516s5.61 10.11 8.38 11.697c0 0-1.54-2.21-1.24-2.82 0 0 7.65 2.54 12.73-.24 0 0-3.45 7.13-7.06 9.24 0 0 10.15-5.43 13.13-12.25l.87-3.45s3.33-1.83 4.96-.92 2.14 3.08 3.67 6.42c2.3 5.01 5.88 7.88 6.17 9.93.25 1.77-2.58 3.46-1.74 3 0 0 1.75.43 1.91 2.02.33 3.26-1.06 7.61-1.06 7.61s.1 15.76-2.81 17.1zm8.116-43.023c-1.24.873-6.027.053-6.45-.238-.423-.29-1.44-7.017-1.44-7.017l.925-.476s5.683-1.877 8.405.45c0 0-.2 6.41-1.44 7.28z"/>
</svg>
